<?xml version="1.0" encoding="iso-8859-1"?>
<!-- Generator: Adobe Illustrator 19.0.0, SVG Export Plug-In . SVG Version: 6.00 Build 0)  -->
<svg version="1.1" id="Layer_1" xmlns="http://www.w3.org/2000/svg" xmlns:xlink="http://www.w3.org/1999/xlink" x="0px" y="0px"
	 viewBox="0 0 512 512" style="enable-background:new 0 0 512 512;" xml:space="preserve">
<path style="fill:#48587C;" d="M420.362,364.359c0,13.517-10.877,24.474-24.297,24.474H80.203c-13.42,0-24.297-10.957-24.297-24.474
	V127.774c0-13.518,10.877-24.476,24.297-24.476h315.862c13.42,0,24.297,10.958,24.297,24.476V364.359z"/>
<path style="fill:#FCB63E;" d="M487.087,252.035c0,13.635-11.053,24.688-24.688,24.688l0,0c-13.637,0-24.69-11.053-24.69-24.688
	V223.45c0-13.635,11.053-24.687,24.69-24.687l0,0c13.635,0,24.688,11.052,24.688,24.687V252.035z"/>
<path id="SVGCleanerId_0" style="fill:#FFFFFF;" d="M384.118,306.126V37.231c0-16.235-13.104-29.394-29.27-29.394H121.42
	c-16.166,0-29.27,13.159-29.27,29.394v268.895L384.118,306.126L384.118,306.126z"/>
<g>
	<path id="SVGCleanerId_0_1_" style="fill:#FFFFFF;" d="M384.118,306.126V37.231c0-16.235-13.104-29.394-29.27-29.394H121.42
		c-16.166,0-29.27,13.159-29.27,29.394v268.895L384.118,306.126L384.118,306.126z"/>
</g>
<path style="opacity:0.1;enable-background:new    ;" d="M118.771,54.92c0-16.232,13.106-29.393,29.27-29.393h233.428
	c0.079,0,0.155,0.005,0.235,0.005c-4.507-10.412-14.831-17.695-26.855-17.695H121.42c-16.166,0-29.27,13.159-29.27,29.394v268.895
	h26.621V54.92z"/>
<g>
	<path style="fill:#B3B3B3;" d="M306.067,134.352H170.2c-4.137,0-7.488,3.369-7.488,7.519c0,4.155,3.351,7.519,7.488,7.519h135.867
		c4.139,0,7.488-3.366,7.488-7.519C313.555,137.721,310.206,134.352,306.067,134.352z"/>
	<path style="fill:#B3B3B3;" d="M170.2,115.866h135.867c4.139,0,7.488-3.366,7.488-7.519s-3.349-7.521-7.488-7.521H170.2
		c-4.137,0-7.488,3.368-7.488,7.521S166.063,115.866,170.2,115.866z"/>
	<path style="fill:#B3B3B3;" d="M170.2,81.913h67.935c4.137,0,7.488-3.367,7.488-7.52c0-4.153-3.351-7.518-7.488-7.518H170.2
		c-4.137,0-7.488,3.366-7.488,7.518C162.712,78.546,166.063,81.913,170.2,81.913z"/>
</g>
<path style="fill:#46D8BA;" d="M451.355,475.526c0,15.817-12.729,28.638-28.431,28.638H53.343
	c-15.702,0-28.429-12.822-28.429-28.638v-276.82c0-15.818,12.727-28.638,28.429-28.638h369.581
	c15.702,0,28.431,12.821,28.431,28.638L451.355,475.526L451.355,475.526z"/>
<path style="opacity:0.2;fill:#FFFFFF;enable-background:new    ;" d="M422.924,170.069h-21.857
	c15.702,0,28.431,12.821,28.431,28.638v276.82c0,15.817-12.729,28.638-28.431,28.638h21.857c15.702,0,28.431-12.822,28.431-28.638
	v-276.82C451.355,182.888,438.626,170.069,422.924,170.069z"/>
<path style="opacity:0.1;enable-background:new    ;" d="M57.503,475.526v-276.82c0-15.818,12.727-28.638,28.429-28.638H53.343
	c-15.702,0-28.429,12.821-28.429,28.638v276.82c0,15.817,12.727,28.638,28.429,28.638h32.59
	C70.23,504.163,57.503,491.341,57.503,475.526z"/>
<path style="fill:#48587C;" d="M416.008,448.24c0,10.09-8.139,18.269-18.179,18.269H78.436c-10.038,0-18.176-8.179-18.176-18.269
	V303.835c0-10.089,8.137-18.268,18.176-18.268h319.392c10.04,0,18.179,8.179,18.179,18.268V448.24H416.008z"/>
<path style="opacity:0.1;enable-background:new    ;" d="M100.303,444.821c-10.04,0-18.177-8.179-18.177-18.269V285.567h-3.69
	c-10.038,0-18.176,8.179-18.176,18.268V448.24c0,10.09,8.137,18.269,18.176,18.269h319.392c10.04,0,18.179-8.179,18.179-18.269
	v-3.419L100.303,444.821L100.303,444.821z"/>
<g>
	<path style="fill:#FFFFFF;" d="M107.956,328.218v-18.046c0-2.492-2.01-4.51-4.488-4.51H85.514c-2.482,0-4.49,2.019-4.49,4.51
		v18.046c0,2.492,2.008,4.511,4.49,4.511h17.956C105.947,332.73,107.956,330.71,107.956,328.218z"/>
	<path style="fill:#FFFFFF;" d="M121.422,332.73h17.958c2.48,0,4.488-2.02,4.488-4.511v-18.046c0-2.492-2.008-4.51-4.488-4.51
		h-17.958c-2.477,0-4.488,2.019-4.488,4.51v18.046C116.934,330.71,118.944,332.73,121.422,332.73z"/>
	<path style="fill:#FFFFFF;" d="M157.334,332.73h17.956c2.48,0,4.49-2.02,4.49-4.511v-18.046c0-2.492-2.01-4.51-4.49-4.51h-17.956
		c-2.48,0-4.49,2.019-4.49,4.51v18.046C152.844,330.71,154.854,332.73,157.334,332.73z"/>
	<path style="fill:#FFFFFF;" d="M193.244,332.73h17.958c2.48,0,4.488-2.02,4.488-4.511v-18.046c0-2.492-2.008-4.51-4.488-4.51
		h-17.958c-2.48,0-4.488,2.019-4.488,4.51v18.046C188.756,330.71,190.764,332.73,193.244,332.73z"/>
	<path style="fill:#FFFFFF;" d="M229.155,332.73h17.958c2.48,0,4.488-2.02,4.488-4.511v-18.046c0-2.492-2.008-4.51-4.488-4.51
		h-17.958c-2.477,0-4.488,2.019-4.488,4.51v18.046C224.667,330.71,226.677,332.73,229.155,332.73z"/>
	<path style="fill:#FFFFFF;" d="M265.067,332.73h17.956c2.48,0,4.49-2.02,4.49-4.511v-18.046c0-2.492-2.01-4.51-4.49-4.51h-17.956
		c-2.48,0-4.49,2.019-4.49,4.51v18.046C260.577,330.71,262.588,332.73,265.067,332.73z"/>
	<path style="fill:#FFFFFF;" d="M300.977,332.73h17.956c2.48,0,4.49-2.02,4.49-4.511v-18.046c0-2.492-2.01-4.51-4.49-4.51h-17.956
		c-2.477,0-4.488,2.019-4.488,4.51v18.046C296.489,330.71,298.5,332.73,300.977,332.73z"/>
	<path style="fill:#FFFFFF;" d="M336.889,332.73h17.953c2.48,0,4.49-2.02,4.49-4.511v-18.046c0-2.492-2.01-4.51-4.49-4.51h-17.953
		c-2.482,0-4.49,2.019-4.49,4.51v18.046C332.399,330.71,334.408,332.73,336.889,332.73z"/>
	<path style="fill:#FFFFFF;" d="M390.755,305.662h-17.956c-2.477,0-4.488,2.019-4.488,4.51v18.046c0,2.492,2.01,4.511,4.488,4.511
		h17.956c2.48,0,4.488-2.02,4.488-4.511v-18.046C395.243,307.681,393.234,305.662,390.755,305.662z"/>
	<path style="fill:#FFFFFF;" d="M125.914,366.113v-18.045c0-2.492-2.01-4.511-4.492-4.511h-17.953c-2.482,0-4.49,2.02-4.49,4.511
		v18.045c0,2.493,2.008,4.512,4.49,4.512h17.953C123.903,370.625,125.914,368.607,125.914,366.113z"/>
	<path style="fill:#FFFFFF;" d="M139.379,343.557c-2.48,0-4.488,2.02-4.488,4.511v18.045c0,2.493,2.008,4.512,4.488,4.512h17.956
		c2.48,0,4.488-2.02,4.488-4.512v-18.045c0-2.492-2.008-4.511-4.488-4.511H139.379z"/>
	<path style="fill:#FFFFFF;" d="M175.289,343.557c-2.48,0-4.49,2.02-4.49,4.511v18.045c0,2.493,2.01,4.512,4.49,4.512h17.956
		c2.48,0,4.488-2.02,4.488-4.512v-18.045c0-2.492-2.008-4.511-4.488-4.511H175.289z"/>
	<path style="fill:#FFFFFF;" d="M211.202,343.557c-2.48,0-4.49,2.02-4.49,4.511v18.045c0,2.493,2.01,4.512,4.49,4.512h17.953
		c2.482,0,4.49-2.02,4.49-4.512v-18.045c0-2.492-2.008-4.511-4.49-4.511H211.202z"/>
	<path style="fill:#FFFFFF;" d="M247.112,343.557c-2.48,0-4.49,2.02-4.49,4.511v18.045c0,2.493,2.01,4.512,4.49,4.512h17.956
		c2.477,0,4.488-2.02,4.488-4.512v-18.045c0-2.492-2.01-4.511-4.488-4.511H247.112z"/>
	<path style="fill:#FFFFFF;" d="M283.022,343.557c-2.48,0-4.49,2.02-4.49,4.511v18.045c0,2.493,2.01,4.512,4.49,4.512h17.956
		c2.48,0,4.49-2.02,4.49-4.512v-18.045c0-2.492-2.01-4.511-4.49-4.511H283.022z"/>
	<path style="fill:#FFFFFF;" d="M318.933,343.557c-2.48,0-4.488,2.02-4.488,4.511v18.045c0,2.493,2.008,4.512,4.488,4.512h17.958
		c2.477,0,4.488-2.02,4.488-4.512v-18.045c0-2.492-2.01-4.511-4.488-4.511H318.933z"/>
	<path style="fill:#FFFFFF;" d="M372.799,343.557h-17.958c-2.48,0-4.488,2.02-4.488,4.511v18.045c0,2.493,2.008,4.512,4.488,4.512
		h17.958c2.48,0,4.488-2.02,4.488-4.512v-18.045C377.287,345.577,375.279,343.557,372.799,343.557z"/>
	<path style="fill:#FFFFFF;" d="M139.379,381.451h-17.958c-2.477,0-4.488,2.021-4.488,4.511v18.046c0,2.492,2.01,4.512,4.488,4.512
		h17.958c2.48,0,4.488-2.021,4.488-4.512v-18.046C143.867,383.472,141.859,381.451,139.379,381.451z"/>
	<path style="fill:#FFFFFF;" d="M175.289,381.451h-17.956c-2.48,0-4.49,2.021-4.49,4.511v18.046c0,2.492,2.01,4.512,4.49,4.512
		h17.956c2.48,0,4.49-2.021,4.49-4.512v-18.046C179.779,383.472,177.769,381.451,175.289,381.451z"/>
	<path style="fill:#FFFFFF;" d="M211.202,381.451h-17.958c-2.48,0-4.488,2.021-4.488,4.511v18.046c0,2.492,2.008,4.512,4.488,4.512
		h17.958c2.48,0,4.488-2.021,4.488-4.512v-18.046C215.689,383.472,213.681,381.451,211.202,381.451z"/>
	<path style="fill:#FFFFFF;" d="M247.112,381.451h-17.958c-2.477,0-4.488,2.021-4.488,4.511v18.046c0,2.492,2.01,4.512,4.488,4.512
		h17.958c2.48,0,4.488-2.021,4.488-4.512v-18.046C251.599,383.472,249.591,381.451,247.112,381.451z"/>
	<path style="fill:#FFFFFF;" d="M283.022,381.451h-17.956c-2.48,0-4.49,2.021-4.49,4.511v18.046c0,2.492,2.01,4.512,4.49,4.512
		h17.956c2.48,0,4.49-2.021,4.49-4.512v-18.046C287.512,383.472,285.501,381.451,283.022,381.451z"/>
	<path style="fill:#FFFFFF;" d="M318.933,381.451h-17.956c-2.477,0-4.488,2.021-4.488,4.511v18.046c0,2.492,2.01,4.512,4.488,4.512
		h17.956c2.48,0,4.49-2.021,4.49-4.512v-18.046C323.422,383.472,321.412,381.451,318.933,381.451z"/>
	<path style="fill:#FFFFFF;" d="M354.843,381.451h-17.953c-2.482,0-4.49,2.021-4.49,4.511v18.046c0,2.492,2.008,4.512,4.49,4.512
		h17.953c2.48,0,4.49-2.021,4.49-4.512v-18.046C359.333,383.472,357.322,381.451,354.843,381.451z"/>
	<path style="fill:#FFFFFF;" d="M327.911,441.906c0,2.491-2.01,4.511-4.49,4.511H152.844c-2.48,0-4.488-2.021-4.488-4.511V423.86
		c0-2.494,2.008-4.511,4.488-4.511h170.577c2.48,0,4.49,2.018,4.49,4.511L327.911,441.906L327.911,441.906z"/>
</g>
<path style="fill:#48587C;" d="M130.402,176.385v5.415c0,34.382,27.735,62.257,61.949,62.257h91.57
	c34.212,0,61.947-27.875,61.947-62.257v-5.415c0-2.133-0.109-4.239-0.317-6.316H130.718
	C130.509,172.146,130.402,174.252,130.402,176.385z"/>
<path d="M462.399,190.927c-1.351,0-2.68,0.092-3.988,0.253c-3.103-14.816-15.172-26.344-30.212-28.558v-34.847
	c0-17.818-14.414-32.312-32.133-32.312h-4.112V37.231C391.954,16.702,375.309,0,354.849,0H121.42
	c-20.46,0-37.106,16.702-37.106,37.231v58.231h-4.112c-17.718,0-32.133,14.495-32.133,32.312v34.847
	c-17.506,2.577-30.993,17.774-30.993,36.085v276.82C17.077,495.638,33.345,512,53.343,512h369.581
	c19.998,0,36.267-16.362,36.267-36.474v-191.13c1.056,0.104,2.125,0.163,3.208,0.163c17.934,0,32.525-14.591,32.525-32.525V223.45
	C494.924,205.517,480.333,190.927,462.399,190.927z M396.066,111.135c9.075,0,16.459,7.465,16.459,16.639v34.457h-20.57v-51.096
	C391.955,111.135,396.066,111.135,396.066,111.135z M121.42,15.673h233.428c11.819,0,21.433,9.671,21.433,21.557v125.001H99.987
	V37.231C99.987,25.344,109.602,15.673,121.42,15.673z M144.767,177.905h8.978v41.977c-3.523-3.612-6.557-7.708-8.978-12.188V177.905
	z M164.516,177.905h8.98v54.9c-3.141-1.179-6.144-2.639-8.98-4.358V177.905z M184.267,177.905h8.978v58.315h-0.893
	c-2.747,0-5.446-0.21-8.083-0.609v-57.706H184.267z M204.018,177.905h8.978v58.315h-8.978V177.905z M223.769,177.905h8.98v58.315
	h-8.98V177.905z M243.52,177.905h8.98v58.315h-8.98V177.905z M263.273,177.905h8.978v58.315h-8.978V177.905z M283.024,177.905h8.978
	v57.706c-2.637,0.399-5.335,0.609-8.081,0.609h-0.895v-58.315H283.024z M302.775,177.905h8.978v50.543
	c-2.835,1.718-5.838,3.179-8.978,4.357V177.905z M322.526,177.905h8.978v29.785c-2.42,4.482-5.454,8.578-8.978,12.19V177.905z
	 M80.203,111.135h4.112v51.096H63.743v-34.457C63.743,118.6,71.127,111.135,80.203,111.135z M53.343,496.327
	c-11.354,0-20.592-9.332-20.592-20.801v-276.82c0-11.47,9.238-20.801,20.592-20.801h69.222v3.894
	c0,38.65,31.306,70.094,69.786,70.094h91.57c38.478,0,69.784-31.444,69.784-70.094v-3.894h69.22
	c11.354,0,20.592,9.332,20.592,20.801v276.82c0,11.47-9.238,20.801-20.592,20.801H53.343z M479.25,252.035
	c0,9.292-7.559,16.851-16.851,16.851c-1.098,0-2.169-0.111-3.208-0.313v-61.659c1.039-0.202,2.111-0.313,3.208-0.313
	c9.292,0,16.851,7.559,16.851,16.85V252.035z"/>
<path d="M423.845,303.835c0-14.395-11.67-26.105-26.016-26.105H78.436c-14.342,0-26.013,11.71-26.013,26.105V448.24
	c0,14.395,11.669,26.106,26.013,26.106h319.392c14.345,0,26.016-11.711,26.016-26.106V303.835H423.845z M408.171,448.24
	c0,5.753-4.639,10.432-10.342,10.432H78.436c-5.701,0-10.339-4.68-10.339-10.432V303.835c0-5.752,4.637-10.431,10.339-10.431
	h319.392c5.703,0,10.342,4.679,10.342,10.431V448.24H408.171z"/>
<g>
</g>
<g>
</g>
<g>
</g>
<g>
</g>
<g>
</g>
<g>
</g>
<g>
</g>
<g>
</g>
<g>
</g>
<g>
</g>
<g>
</g>
<g>
</g>
<g>
</g>
<g>
</g>
<g>
</g>
</svg>
